<mxfile host="65bd71144e">
    <diagram id="SZgZUIBA6v_IzPTl6dWH" name="Page-1">
        <mxGraphModel dx="1618" dy="717" grid="1" gridSize="10" guides="1" tooltips="1" connect="1" arrows="1" fold="1" page="1" pageScale="1" pageWidth="850" pageHeight="1100" math="0" shadow="0">
            <root>
                <mxCell id="0"/>
                <mxCell id="1" parent="0"/>
                <mxCell id="2" value="Cluster" style="swimlane;whiteSpace=wrap;html=1;fillColor=#fff2cc;strokeColor=#d6b656;fillStyle=auto;" parent="1" vertex="1">
                    <mxGeometry x="30" y="50" width="460" height="480" as="geometry"/>
                </mxCell>
                <mxCell id="4" value="Node 10.0.x.y" style="swimlane;whiteSpace=wrap;html=1;fillColor=#dae8fc;strokeColor=#6c8ebf;startSize=23;" parent="2" vertex="1">
                    <mxGeometry x="240" y="40" width="200" height="200" as="geometry"/>
                </mxCell>
                <mxCell id="15" value="Daemon Set Pods" style="rounded=0;whiteSpace=wrap;html=1;" parent="4" vertex="1">
                    <mxGeometry x="10" y="30" width="120" height="30" as="geometry"/>
                </mxCell>
                <mxCell id="16" value="Pod" style="rounded=0;whiteSpace=wrap;html=1;" parent="4" vertex="1">
                    <mxGeometry x="10" y="70" width="120" height="30" as="geometry"/>
                </mxCell>
                <mxCell id="13" value="Pod" style="rounded=0;whiteSpace=wrap;html=1;" parent="4" vertex="1">
                    <mxGeometry x="10" y="110" width="120" height="30" as="geometry"/>
                </mxCell>
                <mxCell id="14" value="Pod" style="rounded=0;whiteSpace=wrap;html=1;" parent="4" vertex="1">
                    <mxGeometry x="10" y="150" width="120" height="30" as="geometry"/>
                </mxCell>
                <mxCell id="3" value="Node" style="swimlane;whiteSpace=wrap;html=1;fillColor=#dae8fc;strokeColor=#6c8ebf;swimlaneFillColor=default;opacity=50;fontColor=#BDBDBD;" parent="2" vertex="1">
                    <mxGeometry x="20" y="40" width="200" height="200" as="geometry"/>
                </mxCell>
                <mxCell id="11" value="Daemon Set Pods" style="rounded=0;whiteSpace=wrap;html=1;opacity=50;fontColor=#A6A6A6;" parent="3" vertex="1">
                    <mxGeometry x="10" y="30" width="120" height="30" as="geometry"/>
                </mxCell>
                <mxCell id="12" value="Pod" style="rounded=0;whiteSpace=wrap;html=1;opacity=50;fontColor=#A6A6A6;" parent="3" vertex="1">
                    <mxGeometry x="10" y="70" width="120" height="30" as="geometry"/>
                </mxCell>
                <mxCell id="5" value="Node" style="swimlane;whiteSpace=wrap;html=1;fillColor=#dae8fc;strokeColor=#6c8ebf;swimlaneFillColor=default;opacity=50;fontColor=#BDBDBD;" parent="2" vertex="1">
                    <mxGeometry x="240" y="260" width="200" height="200" as="geometry"/>
                </mxCell>
                <mxCell id="9" value="Daemon Set Pods" style="rounded=0;whiteSpace=wrap;html=1;opacity=50;fontColor=#A6A6A6;" parent="5" vertex="1">
                    <mxGeometry x="20" y="30" width="120" height="30" as="geometry"/>
                </mxCell>
                <mxCell id="10" value="Pod" style="rounded=0;whiteSpace=wrap;html=1;opacity=50;fontColor=#A6A6A6;" parent="5" vertex="1">
                    <mxGeometry x="20" y="70" width="120" height="30" as="geometry"/>
                </mxCell>
                <mxCell id="6" value="Node" style="swimlane;whiteSpace=wrap;html=1;fillColor=#dae8fc;strokeColor=#6c8ebf;swimlaneFillColor=default;opacity=50;fontColor=#BDBDBD;" parent="2" vertex="1">
                    <mxGeometry x="20" y="260" width="200" height="200" as="geometry"/>
                </mxCell>
                <mxCell id="7" value="Daemon Set Pods" style="rounded=0;whiteSpace=wrap;html=1;opacity=50;fontColor=#A6A6A6;" parent="6" vertex="1">
                    <mxGeometry x="10" y="30" width="120" height="30" as="geometry"/>
                </mxCell>
                <mxCell id="8" value="Pod" style="rounded=0;whiteSpace=wrap;html=1;opacity=50;fontColor=#A6A6A6;" parent="6" vertex="1">
                    <mxGeometry x="10" y="70" width="120" height="30" as="geometry"/>
                </mxCell>
                <mxCell id="17" value="Daemon Set Pod with affinity to 10.0.x.y&lt;br&gt;(pending)" style="rounded=0;whiteSpace=wrap;html=1;" parent="1" vertex="1">
                    <mxGeometry x="580" y="272.5" width="160" height="47.5" as="geometry"/>
                </mxCell>
                <mxCell id="18" value="" style="fillColor=#6ABD46;verticalLabelPosition=bottom;sketch=0;html=1;strokeColor=#ffffff;verticalAlign=top;align=center;points=[[0.145,0.145,0],[0.5,0,0],[0.855,0.145,0],[1,0.5,0],[0.855,0.855,0],[0.5,1,0],[0.145,0.855,0],[0,0.5,0]];pointerEvents=1;shape=mxgraph.cisco_safe.compositeIcon;bgIcon=ellipse;resIcon=mxgraph.cisco_safe.capability.block;" parent="1" vertex="1">
                    <mxGeometry x="530" y="268.5" width="43" height="43" as="geometry"/>
                </mxCell>
                <mxCell id="23" value="" style="endArrow=classic;html=1;exitX=0;exitY=0.5;exitDx=0;exitDy=0;exitPerimeter=0;dashed=1;" parent="1" source="18" edge="1">
                    <mxGeometry width="50" height="50" relative="1" as="geometry">
                        <mxPoint x="630" y="390" as="sourcePoint"/>
                        <mxPoint x="420" y="210" as="targetPoint"/>
                    </mxGeometry>
                </mxCell>
                <mxCell id="25" value="&lt;div style=&quot;color: rgb(0, 0, 0); background-color: rgb(255, 255, 255); font-family: Menlo, Monaco, &amp;quot;Courier New&amp;quot;, monospace; font-weight: normal; font-size: 12px; line-height: 18px;&quot;&gt;&lt;div&gt;&lt;span style=&quot;color: #800000;&quot;&gt;No cpu available on 10.0.x.y&lt;/span&gt;&lt;/div&gt;&lt;/div&gt;" style="text;whiteSpace=wrap;html=1;" vertex="1" parent="1">
                    <mxGeometry x="530" y="340" width="290" height="30" as="geometry"/>
                </mxCell>
            </root>
        </mxGraphModel>
    </diagram>
</mxfile>
